<svg width="261.7" height="70" viewBox="0 0 261.7 70" xmlns="http://www.w3.org/2000/svg"><g id="svgGroup" stroke-linecap="round" fill-rule="evenodd" font-size="9pt" stroke="#ffffff" stroke-width="0.25mm" fill="#ffffff" style="stroke:#ffffff;stroke-width:0.25mm;fill:#ffffff"><path d="M 62.3 0 L 40.3 48.7 L 18.3 0 L 0 0 L 0 70 L 14.6 70 L 14.6 25.1 L 35.1 70 L 44.9 70 L 65.5 24.9 L 65.5 70 L 80.1 70 L 80.1 0 L 62.3 0 Z M 116.5 0 L 88.3 70 L 103.7 70 L 109.6 54.9 L 136.3 54.9 L 142.2 70 L 157.9 70 L 129.8 0 L 116.5 0 Z M 152.1 14 L 170.6 14 L 170.6 70 L 185.7 70 L 185.7 14 L 204.1 14 L 204.1 0 L 152.1 0 L 152.1 14 Z M 209.7 14 L 228.2 14 L 228.2 70 L 243.3 70 L 243.3 14 L 261.7 14 L 261.7 0 L 209.7 0 L 209.7 14 Z M 122.9 19.1 L 131.8 42 L 114.2 42 L 122.9 19.1 Z" vector-effect="non-scaling-stroke"/></g></svg>